# xmcd CD database file
#
# Track frame offsets:
#	150
#	18285
#	37625
#	57187
#	78140
#	97425
#	116587
#	137025
#	152285
#	169837
#	189730
#	205442
#	227005
#	246842
#	268017
#	288717
#	303940
#	321715
#
# Disc length: 4555 seconds
#
# Revision: 2
# Processed by: cddbd v1.5.2PL0 Copyright (c) Steve Scherf et al.
# Submitted via: CDex 1.70beta2
#
DISCID=fc11c912
DTITLE=MANISH - complete of MANISH at the BEING studio
DYEAR=2002
DGENRE=Pop
TTITLE0=恋人と呼べないDistance (130 Brand-new mix)
TTITLE1=声にならないほどに愛しい
TTITLE2=素顔のままKISSしよう
TTITLE3=君が欲しい 全部欲しい
TTITLE4=眠らない街に流されて
TTITLE5=だけど止められない
TTITLE6=もう誰の目も気にしない
TTITLE7=明日のStory
TTITLE8=走り出せLonely Night
TTITLE9=煌めく瞬間に捕われて
TTITLE10=この一瞬という永遠の中で
TTITLE11=君の空になりたい
TTITLE12=いつでも いまでも いつかは
TTITLE13=ゆずれない瞬間
TTITLE14=眩しいくらいに…
TTITLE15=IT'S SO NATURAL
TTITLE16=夢の飛行機
TTITLE17=明日に向かって
EXTD=YEAR: 2002
EXTT0=
EXTT1=
EXTT2=
EXTT3=
EXTT4=
EXTT5=
EXTT6=
EXTT7=
EXTT8=
EXTT9=
EXTT10=
EXTT11=
EXTT12=
EXTT13=
EXTT14=
EXTT15=
EXTT16=
EXTT17=
PLAYORDER=
